<?xml version="1.0" encoding="UTF-8" standalone="no"?>
<!-- Created with Inkscape (http://www.inkscape.org/) -->

<svg
   width="35mm"
   height="35mm"
   viewBox="0 0 35 35"
   version="1.1"
   id="svg5"
   inkscape:version="1.1.1 (3bf5ae0d25, 2021-09-20)"
   sodipodi:docname="mailrest.svg"
   xmlns:inkscape="http://www.inkscape.org/namespaces/inkscape"
   xmlns:sodipodi="http://sodipodi.sourceforge.net/DTD/sodipodi-0.dtd"
   xmlns="http://www.w3.org/2000/svg"
   xmlns:svg="http://www.w3.org/2000/svg">
  <sodipodi:namedview
     id="namedview7"
     pagecolor="#505050"
     bordercolor="#ffffff"
     borderopacity="1"
     inkscape:pageshadow="0"
     inkscape:pageopacity="0"
     inkscape:pagecheckerboard="1"
     inkscape:document-units="mm"
     showgrid="false"
     inkscape:snap-bbox="true"
     inkscape:bbox-paths="true"
     inkscape:snap-bbox-edge-midpoints="true"
     inkscape:bbox-nodes="true"
     inkscape:snap-bbox-midpoints="true"
     inkscape:snap-center="true"
     inkscape:zoom="4"
     inkscape:cx="87.625"
     inkscape:cy="88.625"
     inkscape:window-width="1920"
     inkscape:window-height="1009"
     inkscape:window-x="1912"
     inkscape:window-y="-8"
     inkscape:window-maximized="1"
     inkscape:current-layer="layer1"
     fit-margin-top="0"
     fit-margin-left="0"
     fit-margin-right="0"
     fit-margin-bottom="0" />
  <defs
     id="defs2" />
  <g
     inkscape:label="Calque 1"
     inkscape:groupmode="layer"
     id="layer1"
     transform="translate(-42.966,-66.921402)">
    <circle
       style="fill:#2aace3;fill-opacity:1;stroke-width:0.57378;stroke-linecap:round;stroke-linejoin:round;stroke-dashoffset:28;paint-order:stroke fill markers"
       id="path1233"
       cx="60.466"
       cy="84.421402"
       r="17.5" />
    <path
       id="path936"
       style="display:inline;fill:#ffffff;stroke:#ffffff;stroke-width:1.13386;stroke-miterlimit:4;stroke-dasharray:none;stroke-opacity:1"
       d="m 228.70117,272.3125 c -0.95027,0.0259 -1.93786,0.25245 -3.08008,0.68359 -4.71584,1.78003 -26.77848,16.54645 -26.80078,17.9375 -0.0105,0.65951 1.56715,2.40995 3.50586,3.88868 l 3.52539,2.6875 11.4961,-7.65821 11.49804,-7.65625 13.03125,8.94141 c 7.16715,4.9179 13.04304,9.25404 13.05664,9.63672 0.0137,0.38268 -5.9207,4.6572 -13.1875,9.49804 l -13.21289,8.80079 -17.11132,-11.41797 c -18.35948,-12.252 -21.057,-13.23843 -25.30665,-9.2461 -2.30991,2.16991 -2.31445,2.22976 -2.31445,29.5 0,25.99235 0.0976,27.42376 2,29.32618 1.93484,1.93483 3.33365,2 42.92774,2 h 40.92773 l 2.07227,-2.63477 c 1.95276,-2.48266 2.07226,-3.89494 2.07226,-24.44141 0,-12.89706 -0.39347,-22.04844 -0.96289,-22.40039 -0.52955,-0.32727 -2.7673,0.54338 -4.97266,1.93555 l -4.00976,2.53125 -0.27735,13.96289 -0.27734,13.96094 -8.38672,-5.45703 c -4.61282,-3.00153 -9.3611,-5.45703 -10.55078,-5.45703 -4.74868,-10e-6 -6.13867,5.2239 -2.3125,8.68945 1.2375,1.12086 4.71867,3.67382 7.73633,5.67383 l 5.48633,3.63672 h -26.47461 -26.47656 l 6.70117,-4.4961 c 8.59367,-5.76505 10.39281,-8.74391 7.20508,-11.93164 -2.59821,-2.5982 -5.6562,-1.82482 -13.48047,3.41406 -4.09639,2.74281 -7.78477,4.99282 -8.19727,5 -0.41249,0.007 -0.75,-7.18633 -0.75,-15.98632 0,-8.80001 0.23809,-16 0.5293,-16 0.29121,0 5.80371,3.53285 12.25,7.85156 17.9838,12.04827 21.55941,13.53826 26.53711,11.06054 1.20134,-0.59798 9.7374,-6.09993 18.9707,-12.22656 17.81645,-11.82185 19.35293,-13.53429 16.30273,-18.18945 -1.69474,-2.58649 -32.00777,-23.07332 -36.83789,-24.89649 -0.98829,-0.37303 -1.90129,-0.5474 -2.85156,-0.52148 z m -0.15039,1.92188 c 1.58111,0 8.73701,4.07012 18.65625,10.60937 17.82546,11.75141 20.59375,13.95744 20.59375,16.41992 0,1.06395 -6.49202,6.03921 -17.68555,13.55274 -14.55266,9.76831 -18.334,11.87304 -21.33984,11.87304 -2.95409,0 -6.62413,-1.95825 -19.17773,-10.22851 -8.53832,-5.625 -16.03526,-10.22656 -16.66016,-10.22656 -0.80838,0 -1.13672,5.4818 -1.13672,19 0,14.60497 0.29207,19 1.25977,19 0.69239,0 4.95439,-2.475 9.47265,-5.5 8.40757,-5.62891 11.87475,-6.68816 12.92578,-3.94922 0.81463,2.12289 -2.29734,5.18942 -10.09765,9.94922 -3.60534,2.2 -6.55729,4.5625 -6.5586,5.25 -0.002,0.97227 6.66345,1.25 29.99805,1.25 33.31804,-10e-6 33.99251,-0.15621 24.74024,-5.76368 -8.24967,-4.99982 -12.18572,-8.63304 -11.44532,-10.5625 1.05554,-2.75068 3.33314,-1.97551 12.70508,4.32618 4.9078,3.3 9.38981,6 9.96094,6 0.67136,0 1.03906,-5.26152 1.03906,-14.88477 0,-14.71718 0.0278,-14.9032 2.46484,-16.5 1.35565,-0.88825 2.70558,-1.61523 3,-1.61523 0.29443,-10e-6 0.53516,9.12472 0.53516,20.27734 0,16.73425 -0.27194,20.66585 -1.55664,22.5 l -1.55664,2.22266 h -40.24414 c -29.96701,0 -40.54979,-0.30565 -41.44336,-1.19922 -0.8733,-0.87329 -1.19922,-8.45514 -1.19922,-27.84571 0,-24.54326 0.14364,-26.77634 1.82813,-28.30078 1.0058,-0.91024 2.6933,-1.65214 3.75,-1.64844 1.05669,0.004 9.74654,5.20386 19.31054,11.55469 9.56401,6.35083 17.98103,11.32005 18.70313,11.04297 3.76818,-1.44599 28.4082,-18.84389 28.4082,-20.05859 0,-0.78131 -6.49948,-5.78924 -14.44336,-11.12696 l -14.44336,-9.70507 -11.09765,7.14453 c -6.10377,3.92874 -11.42902,7.14258 -11.83399,7.14258 -0.40497,0 -1.78193,-0.73333 -3.06054,-1.62891 -2.31306,-1.62013 -2.2612,-1.67049 10.36914,-10 7.61305,-5.02068 13.72137,-8.37109 15.25976,-8.37109 z m -0.0391,0.65039 c -1.52117,0 -8.42888,3.91859 -17.38086,9.86132 -6.31839,4.19442 -8.69336,5.97209 -8.69336,6.50196 0,0.33927 2.14619,1.8615 3.13086,2.2207 0.62307,0.22728 3.4832,-1.46013 15.00586,-8.85547 l 8.33984,-5.35351 9.18555,6.17187 c 12.83011,8.61837 19.32841,13.42668 20.10351,14.875 0.283,0.52879 0.14465,0.75181 -1.32617,2.14258 -3.25518,3.07801 -21.92335,16.18459 -25.9414,18.21289 l -1.69727,0.85742 -1.18945,-0.51367 c -0.65324,-0.28182 -2.7393,-1.41734 -4.63672,-2.52344 -3.30494,-1.92663 -5.43287,-3.27273 -16.83594,-10.66406 -9.04645,-5.86381 -14.35114,-8.92383 -15.47656,-8.92383 -1.06273,0 -3.23124,1.38923 -3.69531,2.36719 -0.75326,1.58738 -0.96189,7.11834 -0.96289,25.50781 -9.3e-4,17.29596 0.26901,26.85065 0.79882,28.24414 0.33402,0.87855 1.22096,1.03089 7.46875,1.28125 2.65639,0.10645 20.3598,0.21193 39.33985,0.23633 l 34.50781,0.0449 0.88477,-1.45703 c 0.48582,-0.80161 1.02163,-2.07384 1.1914,-2.82812 0.37691,-1.67447 0.6502,-31.96531 0.32813,-36.34961 l -0.2168,-2.96094 -1.6582,1.04883 c -0.93064,0.58911 -1.82998,1.40581 -2.04883,1.85937 -0.3069,0.63608 -0.43629,3.42364 -0.60742,13.08985 -0.22503,12.7112 -0.44811,15.78469 -1.20508,16.5332 -0.4054,0.40086 -0.60893,0.3506 -2.38477,-0.5957 -1.068,-0.56912 -4.72788,-2.84161 -8.13086,-5.05079 -7.2417,-4.70123 -10.00924,-6.13581 -11.10742,-5.75195 -1.02062,0.35675 -1.11205,1.51054 -0.22461,2.85156 0.8355,1.26253 4.03338,3.86895 7.37696,6.01563 8.55494,5.49253 8.97058,5.85431 8.17382,7.07031 -0.67851,1.03553 -2.24151,1.26036 -11.08984,1.5918 -9.28255,0.3477 -41.95526,0.13178 -45.90039,-0.30274 -2.86024,-0.31503 -3.64062,-0.60728 -3.64062,-1.37109 0,-0.99791 2.40108,-2.96317 7.86523,-6.43555 3.92804,-2.49621 6.88775,-4.80618 7.93555,-6.19531 0.94905,-1.25822 1.0258,-2.67867 0.16992,-3.13672 -1.50706,-0.80655 -4.1593,0.39521 -12.24414,5.54297 -7.64903,4.87028 -9.003,5.50754 -9.75977,4.5957 -0.74634,-0.8993 -0.94836,-4.95212 -0.94336,-18.94922 0.006,-17.17819 0.22574,-19.5957 1.78125,-19.5957 0.70373,0 6.89114,3.74133 16.53516,10 16.06315,10.42449 17.89962,11.22525 22.08398,9.625 2.30191,-0.88034 7.72646,-4.19055 16.53125,-10.08984 9.18676,-6.15521 15.13237,-10.43932 17.46289,-12.58008 l 1.66211,-1.52734 -0.5,-1.05274 c -0.84975,-1.79071 -5.53903,-5.31505 -17.97461,-13.50781 -11.12063,-7.32645 -18.82844,-11.77734 -20.39062,-11.77734 z"
       transform="scale(0.26458333)" />
    <path
       id="path2464"
       style="fill:#000000;stroke-width:0.102112"
       d="m 244.85742,276.12305 c -1.39965,-0.005 -2.25838,0.18853 -3.47265,0.7832 -2.14249,1.04925 -3.68223,2.99736 -4.18946,5.30078 -0.24124,1.0955 -0.16591,2.99164 0.15625,3.94336 0.51087,1.50919 1.1277,2.46657 2.27344,3.52734 0.86319,0.79919 2.37219,1.58466 3.49609,1.82032 0.96194,0.2017 2.44989,0.20185 3.34961,0.002 1.56057,-0.34671 3.34297,-1.4242 4.33985,-2.625 3.20514,-3.86078 1.97529,-9.69665 -2.51953,-11.95898 -1.11081,-0.55908 -2.09668,-0.78768 -3.4336,-0.79297 z m -18.33984,3.11133 c -0.85349,0.0568 -1.55936,0.42512 -2.23828,1.16796 -1.07705,1.17848 -1.3263,2.29225 -1.14258,5.1211 0.27956,4.30478 1.39526,8.35422 3.4375,12.48828 l 0.53906,1.0918 -3.63086,2.89257 c -1.9969,1.59044 -3.71573,2.9539 -3.82031,3.0293 -0.17178,0.12385 -0.2778,0.0533 -1.08008,-0.7168 -2.44502,-2.34708 -5.91896,-5.09621 -9.48242,-7.5039 -1.41185,-0.95395 -1.96099,-1.15821 -3.10938,-1.15821 -0.86208,0 -1.87053,0.29533 -2.74414,0.80274 -0.31205,0.18125 -1.57733,0.90795 -3.94921,2.75391 l 27.71436,18.18734 c 2.12948,1.39745 3.1535,-2.87882 8.50243,-7.14633 2.0499,-1.63546 4.70483,-3.79951 5.90039,-4.81055 l 2.17383,-1.83789 3.23828,0.01 c 4.39314,0.0134 7.1888,-0.13197 7.9375,-0.41211 1.06713,-0.39926 1.8714,-1.205 2.30664,-2.31055 0.47585,-1.20867 0.24943,-3.26781 -0.72656,-6.60547 -0.67233,-2.29921 -1.71274,-4.79568 -2.82422,-6.7832 l -0.36523,-0.65625 -0.28125,0.72266 c -0.94903,2.43919 -2.79859,4.23867 -5.37891,5.23242 -0.21892,0.0843 -0.21535,0.0991 0.28125,1.32226 0.27621,0.68038 0.50195,1.30381 0.50195,1.38477 0,0.12333 -0.32829,0.14648 -2.01172,0.14648 h -2.01171 l -0.72266,-0.74609 c -1.99551,-2.06131 -4.55638,-2.97205 -6.98242,-2.48047 -0.95776,0.19407 -1.66604,0.48426 -2.50586,1.02149 l -0.57813,0.36914 -0.21093,-0.48633 c -0.42529,-0.9829 -0.78754,-1.93684 -1.05664,-2.7832 -0.27099,-0.8523 -0.78751,-2.97617 -0.73633,-3.02735 0.0377,-0.0376 2.58637,0.16543 3.87304,0.3086 0.60374,0.0673 1.09766,0.10849 1.09766,0.0937 0,-0.0148 -0.10995,-0.35923 -0.24609,-0.76758 -0.71295,-2.1385 -0.54455,-4.64263 0.44531,-6.60352 l 0.29883,-0.5918 -1.0918,-0.11914 c -1.97466,-0.21702 -8.63257,-0.64541 -9.32031,-0.5996 z"
       transform="scale(0.26458333)"
       sodipodi:nodetypes="ssssssssssssscccsssssccscccsssccsssssccscccsscsscccscs" />
    <path
       id="path1909"
       style="display:none;fill:#000000;stroke-width:0.0706367"
       d="m 219.57812,263.54688 c -1.11576,0.002 -1.37827,0.0256 -2.14453,0.19335 -2.42679,0.53135 -4.17123,1.41741 -5.72265,2.91016 -1.03162,0.9926 -1.73859,1.96044 -2.37696,3.25 -0.75244,1.51999 -0.81843,1.83221 -0.86132,4.04102 -0.0372,1.91478 0.0276,2.83617 0.27148,3.79882 0.16367,0.64616 0.85869,2.1078 1.44336,3.03907 2.0581,3.27817 5.77888,5.52158 9.9707,6.01172 1.15676,0.13526 3.45714,0.0992 4.92969,-0.0781 3.58656,-0.43189 7.61431,-1.41407 12.00977,-2.92969 0.45768,-0.15783 0.83852,-0.27973 0.8457,-0.26953 0.007,0.0103 -1.98459,5.53488 -4.42578,12.27539 -1.88236,5.1975 -4.82869,13.4023 -7.51563,20.91211 l 2.52539,1.68555 5.69532,-3.78906 c 0.69532,-2.33686 1.41057,-4.73752 2.14453,-7.18946 1.01175,-3.37996 3.94826,-13.4238 6.52539,-22.32031 l 4.68554,-16.17578 -0.21093,-0.33008 c -0.38087,-0.59353 -1.26636,-1.04883 -2.04102,-1.04883 -0.96022,0 -1.40126,0.35478 -2.50976,2.01953 -2.11985,3.1836 -5.47671,7.01021 -7.30274,8.32227 -0.78431,0.56355 -1.30716,0.77143 -2.01953,0.80469 -1.01263,0.0473 -2.1271,-0.44475 -2.72656,-1.20313 -0.55837,-0.70639 -0.87179,-1.55848 -1.44727,-3.93945 -0.77045,-3.18767 -1.07763,-4.1668 -1.67383,-5.32813 -1.20665,-2.35042 -3.34081,-3.90952 -6.20117,-4.5332 -0.45864,-0.1 -0.88989,-0.13028 -1.86719,-0.1289 z"
       transform="scale(0.26458333)" />
  </g>
</svg>
